<?xml version="1.0" encoding="utf-8"?>
<!-- Generator: Adobe Illustrator 25.4.0, SVG Export Plug-In . SVG Version: 6.00 Build 0)  -->
<svg version="1.1" id="Layer_1" xmlns="http://www.w3.org/2000/svg" xmlns:xlink="http://www.w3.org/1999/xlink" x="0px" y="0px"
	 viewBox="0 0 576 512" style="enable-background:new 0 0 576 512;" xml:space="preserve">
<style type="text/css">
	.st0{fill:#FFFFFF;}
</style>
<path class="st0" d="M309.6,158.5l23.1-138.7C334.6,8.4,344.5,0,356.1,0c7.5,0,14.5,3.5,19,9.5L392,32h52.1
	c12.7,0,24.9,5.1,33.9,14.1L496,64h56c13.3,0,24,10.7,24,24v24c0,44.2-35.8,80-80,80h-32h-16h-21.3l-5.1,30.5L309.6,158.5z
	 M416,256.1V480c0,17.7-14.3,32-32,32h-32c-17.7,0-32-14.3-32-32V364.8c-24,12.3-51.2,19.2-80,19.2s-56-6.9-80-19.2V480
	c0,17.7-14.3,32-32,32H96c-17.7,0-32-14.3-32-32V249.8c-28.8-10.9-51.4-35.3-59.2-66.5L1,167.8c-4.3-17.1,6.1-34.5,23.3-38.8
	s34.5,6.1,38.8,23.3l3.9,15.5C70.5,182,83.3,192,98,192h30h16h159.8L416,256.1z M464,80c0-8.8-7.2-16-16-16s-16,7.2-16,16
	s7.2,16,16,16S464,88.8,464,80z"/>
</svg>
